<svg xmlns="http://www.w3.org/2000/svg" width="20" height="20" viewBox="0 0 20 20">
  <g id="leave" transform="translate(160.666 100.416)">
    <path id="Path_2" data-name="Path 2" d="M18.75,10.837c-.691,0-1.25.373-1.25.833V15c0,.459-.56.833-1.25.833H12.5V3.337c0-.712-.68-1.347-1.7-1.584l-.37-.083H16.25c.69,0,1.25.374,1.25.833V5c0,.46.559.833,1.25.833S20,5.464,20,5V2.5C20,1.125,18.317,0,16.25,0H2.812c-.048,0-.087.014-.134.018S2.561,0,2.5,0C1.121,0,0,.751,0,1.67v15c0,.712.68,1.347,1.7,1.584l7.523,1.672A3.8,3.8,0,0,0,10,20c1.379,0,2.5-.748,2.5-1.667V17.5h3.75C18.317,17.5,20,16.382,20,15V11.67c0-.46-.559-.833-1.25-.833Zm0,0" transform="translate(-160.666 -100.42)" fill="#9b2450"/>
    <path id="Path_3" data-name="Path 3" d="M277.332,112.032v-.366h0v2.5h0v-2.134Zm0,0" transform="translate(-417.998 -203.332)" fill="#9b2450"/>
  </g>
</svg>
