<?xml version="1.0"?>
<svg xmlns="http://www.w3.org/2000/svg" height="512px" viewBox="-55 0 447 447.36" width="512px"><g><path d="m176.179688 0v32.59375l45.863281 7.636719c-6.015625-21.28125-23.980469-37.035157-45.863281-40.230469zm0 0" data-original="#000000" class="active-path" data-old_color="#000000" fill="#ED3B37"/><path d="m80.179688 84.480469c.003906 2.335937 1.03125 4.554687 2.808593 6.070312 1.777344 1.519531 4.132813 2.183594 6.441407 1.816407l72.160156-12c4.347656-.699219 8.777344-.699219 13.125 0l72.136718 12c.4375.078124.882813.117187 1.328126.113281 4.417968 0 8-3.582031 8-8v-22.34375l-84-13.976563c-2.648438-.4375-5.351563-.4375-8 0l-84 13.984375zm0 0" data-original="#000000" class="active-path" data-old_color="#000000" fill="#ED3B37"/><path d="m97.308594 43.0625c2.789062-16.03125 10.9375-30.640625 23.113281-41.4375-20.507813 5.953125-35.820313 23.089844-39.441406 44.136719zm0 0" data-original="#000000" class="active-path" data-old_color="#000000" fill="#ED3B37"/><path d="m336.179688 447.359375v-88c-.066407-57.410156-46.589844-103.933594-104-104h-16v8c-.027344 22.082031-17.917969 39.972656-40 40h-16c-22.082032-.027344-39.972657-17.917969-40-40v-8h-16c-57.410157.066406-103.933594 46.589844-104 104v88h64v-104c0-4.417969 3.582031-8 8-8 4.417968 0 8 3.582031 8 8v104h176v-104c0-4.417969 3.582031-8 8-8 4.417968 0 8 3.582031 8 8v104zm0 0" data-original="#000000" class="active-path" data-old_color="#000000" fill="#ED3B37"/><path d="m160.179688 32.585938v-32.585938c-21.882813 3.195312-39.847657 18.949219-45.863282 40.230469zm0 0" data-original="#000000" class="active-path" data-old_color="#000000" fill="#ED3B37"/><path d="m240.179688 154.640625v-47.199219l-68-11.28125c-2.648438-.433594-5.351563-.433594-8 0l-68 11.304688v47.199218c-.023438 22.144532 13.855468 41.917969 34.6875 49.425782 2.242187.910156 4.558593 1.613281 6.929687 2.101562 3.648437.78125 7.371094 1.171875 11.101563 1.167969h38.5625c3.703124 0 7.398437-.394531 11.023437-1.175781 2.285156-.460938 4.523437-1.128906 6.6875-1.992188 20.976563-7.445312 34.996094-27.289062 35.007813-49.550781zm0 0" data-original="#000000" class="active-path" data-old_color="#000000" fill="#ED3B37"/><path d="m255.378906 45.761719c-3.691406-20.988281-18.941406-38.078125-39.375-44.121094 12.152344 10.792969 20.285156 25.386719 23.070313 41.398437zm0 0" data-original="#000000" class="active-path" data-old_color="#000000" fill="#ED3B37"/><path d="m80.179688 151.359375v-32c-8.835938 0-16 7.164063-16 16s7.164062 16 16 16zm0 0" data-original="#000000" class="active-path" data-old_color="#000000" fill="#ED3B37"/><path d="m256.179688 119.359375v32c8.835937 0 16-7.164063 16-16s-7.164063-16-16-16zm0 0" data-original="#000000" class="active-path" data-old_color="#000000" fill="#ED3B37"/><path d="m194.300781 223c-2.273437.222656-4.554687.359375-6.839843.359375h-38.5625c-2.289063-.007813-4.578126-.128906-6.855469-.367187-.742188-.070313-1.472657-.207032-2.214844-.3125-1.214844-.160157-2.398437-.289063-3.648437-.511719v41.191406c0 13.253906 10.746093 24 24 24h16c13.253906 0 24-10.746094 24-24v-41.191406c-1.183594.222656-2.398438.34375-3.589844.503906-.769532.105469-1.523438.25-2.289063.328125zm0 0" data-original="#000000" class="active-path" data-old_color="#000000" fill="#ED3B37"/></g> </svg>
