<svg xmlns="http://www.w3.org/2000/svg" width="15" height="13.932" viewBox="0 0 15 13.932">
  <g id="add-group" transform="translate(-32.053 -48)">
    <circle id="Ellipse_3" data-name="Ellipse 3" cx="2.143" cy="2.143" r="2.143" transform="translate(40.357 48)" fill="#fff"/>
    <circle id="Ellipse_4" data-name="Ellipse 4" cx="2.143" cy="2.143" r="2.143" transform="translate(34.462 49.072)" fill="#fff"/>
    <path id="Path_7" data-name="Path 7" d="M40.415,226.307A4.332,4.332,0,0,0,36.606,224a4.24,4.24,0,0,0-3.209,1.46,5.791,5.791,0,0,0-1.343,3.737,11.132,11.132,0,0,0,4.553,1.233,8.456,8.456,0,0,0,1.731-.187A3.216,3.216,0,0,1,40.415,226.307Z" transform="translate(0 -170.106)" fill="#fff"/>
    <path id="Path_8" data-name="Path 8" d="M234.679,304a2.679,2.679,0,1,0,2.679,2.679A2.679,2.679,0,0,0,234.679,304Zm1.34,2.947h-1.072v1.072a.268.268,0,0,1-.536,0v-1.072H233.34a.268.268,0,0,1,0-.536h1.072V305.34a.268.268,0,0,1,.536,0v1.072h1.072a.268.268,0,0,1,0,.536Z" transform="translate(-193.251 -247.427)" fill="#fff"/>
    <path id="Path_9" data-name="Path 9" d="M253.045,192a4.217,4.217,0,0,0-3.152,1.4,5.219,5.219,0,0,1,1.607,1.853,3.216,3.216,0,0,1,3.676,2.9,10.688,10.688,0,0,0,2.422-.946,5.793,5.793,0,0,0-1.344-3.743,4.24,4.24,0,0,0-3.209-1.46Z" transform="translate(-210.545 -139.177)" fill="#fff"/>
  </g>
</svg>
