<svg xmlns="http://www.w3.org/2000/svg" width="15" height="11.434" viewBox="0 0 15 11.434">
  <g id="Group_3" data-name="Group 3" transform="translate(-670 -676)">
    <g id="announcement" transform="translate(670 676.001)">
      <path id="Path_2" data-name="Path 2" d="M220.961,8.2l5.008,2.639V0l-5.008,2.639Zm0,0" transform="translate(-214.487)" fill="#fff"/>
      <path id="Path_3" data-name="Path 3" d="M451.953,169.988h1.759v.879h-1.759Zm0,0" transform="translate(-438.712 -165.009)" fill="#fff"/>
      <path id="Path_4" data-name="Path 4" d="M432.926,73.172l.336.812-1.625.673-.336-.812Zm0,0" transform="translate(-418.665 -71.029)" fill="#fff"/>
      <path id="Path_5" data-name="Path 5" d="M432.915,247.591l-1.625-.673.336-.812,1.625.673Zm0,0" transform="translate(-418.654 -238.896)" fill="#fff"/>
      <path id="Path_6" data-name="Path 6" d="M5.595,99.934H1.759v.88H1.612a1.612,1.612,0,0,0,0,3.224h.147v.88h.984l.968,3.522H6.562l-.968-3.378Zm0,0" transform="translate(0 -97.007)" fill="#fff"/>
    </g>
  </g>
</svg>
