<svg xmlns="http://www.w3.org/2000/svg" width="20" height="25.413" viewBox="0 0 20 25.413">
  <g id="Group_6" data-name="Group 6" transform="translate(-821 -673)">
    <g id="Group_5" data-name="Group 5">
      <path id="Path_119" data-name="Path 119" d="M27.1,6.477a.337.337,0,0,0,.133-.644L14.389.134A1.551,1.551,0,0,0,12.337.92l-4.5,10.093a1.552,1.552,0,0,0,.789,2.05l2.593,1.121a.493.493,0,0,0,.694-.448V9.456a2.974,2.974,0,0,1,2.972-2.972H27.1Z" transform="translate(813.301 673.002)" fill="#fff"/>
      <path id="Path_120" data-name="Path 120" d="M133.8,153.136H118.209a1.573,1.573,0,0,0-1.573,1.573V165.72a1.573,1.573,0,0,0,1.573,1.573H120.3a5.717,5.717,0,0,1-.077-.941,5.956,5.956,0,0,1,.1-1.054h-1.687v-5.278h14.747v5.266H131.69a5.944,5.944,0,0,1,.1,1.054,5.73,5.73,0,0,1-.077.941H133.8a1.573,1.573,0,0,0,1.573-1.573V154.7a1.573,1.573,0,0,0-1.574-1.566Zm-.422,3.644H118.637v-1.651h14.746Z" transform="translate(705.623 527.742)" fill="#fff"/>
      <g id="Group_4" data-name="Group 4" transform="translate(827.664 690.328)">
        <path id="Path_121" data-name="Path 121" d="M224.279,331.436a4.043,4.043,0,1,0,4.042,4.043,4.043,4.043,0,0,0-4.042-4.043Zm1.162,5.637a1.28,1.28,0,0,1-.673.432.188.188,0,0,0-.164.216v.36a.145.145,0,0,1-.16.165q-.192.008-.385,0c-.113,0-.164-.066-.164-.175V337.8c0-.189-.011-.2-.2-.23a2.422,2.422,0,0,1-.684-.2c-.169-.081-.189-.125-.133-.3.036-.134.072-.267.113-.4.047-.155.088-.169.23-.1a2.214,2.214,0,0,0,.761.227.926.926,0,0,0,.5-.067.385.385,0,0,0,.093-.678,1.053,1.053,0,0,0-.283-.165,5.891,5.891,0,0,1-.777-.349,1.094,1.094,0,0,1-.628-1.054,1.159,1.159,0,0,1,.848-1.074c.207-.076.21-.072.21-.288v-.221c0-.165.032-.189.2-.2h.149c.349,0,.349,0,.349.349,0,.252,0,.252.252.282a2.253,2.253,0,0,1,.54.16.156.156,0,0,1,.1.211c-.041.149-.081.3-.133.448s-.093.16-.227.1a1.7,1.7,0,0,0-.853-.169.674.674,0,0,0-.227.047.324.324,0,0,0-.082.576,1.646,1.646,0,0,0,.371.21,5.684,5.684,0,0,1,.679.31,1.21,1.21,0,0,1,.377,1.834Z" transform="translate(-220.236 -331.436)" fill="#fff"/>
        <g id="Ellipse_2" data-name="Ellipse 2" transform="translate(1.715 0.281)" fill="#fff" stroke="#fff" stroke-width="1">
          <ellipse cx="2.666" cy="3.332" rx="2.666" ry="3.332" stroke="none"/>
          <ellipse cx="2.666" cy="3.332" rx="2.166" ry="2.832" fill="none"/>
        </g>
      </g>
    </g>
  </g>
</svg>
