<svg xmlns="http://www.w3.org/2000/svg" width="20" height="20" viewBox="0 0 20 20">
  <g id="calender" transform="translate(-6 -6)">
    <g id="Group_2" data-name="Group 2" transform="translate(6 6)">
      <g id="Group_1" data-name="Group 1">
        <path id="Path_1" data-name="Path 1" d="M24.269,7.538H22.923V6.769a.769.769,0,1,0-1.538,0v.769H10.615V6.769a.769.769,0,1,0-1.538,0v.769H7.731A1.733,1.733,0,0,0,6,9.269v2.115H26V9.269A1.733,1.733,0,0,0,24.269,7.538Z" transform="translate(-6 -6)" fill="#9b2450"/>
        <path id="Path_2" data-name="Path 2" d="M6,35.346a1.733,1.733,0,0,0,1.731,1.731H24.269A1.733,1.733,0,0,0,26,35.346V24H6Zm16.154-9.808a.769.769,0,1,1-.769.769A.769.769,0,0,1,22.154,25.538Zm0,3.077a.769.769,0,1,1-.769.769A.769.769,0,0,1,22.154,28.615Zm-3.077-3.077a.769.769,0,1,1-.769.769A.769.769,0,0,1,19.077,25.538Zm0,3.077a.769.769,0,1,1-.769.769A.769.769,0,0,1,19.077,28.615ZM16,25.538a.769.769,0,1,1-.769.769A.769.769,0,0,1,16,25.538Zm0,3.077a.769.769,0,1,1-.769.769A.769.769,0,0,1,16,28.615Zm0,2.308a1.538,1.538,0,1,1-1.538,1.538A1.538,1.538,0,0,1,16,30.923Zm-3.077-5.385a.769.769,0,1,1-.769.769A.769.769,0,0,1,12.923,25.538Zm0,3.077a.769.769,0,1,1-.769.769A.769.769,0,0,1,12.923,28.615Zm0,3.077a.769.769,0,1,1-.769.769A.769.769,0,0,1,12.923,31.692ZM9.846,28.615a.769.769,0,1,1-.769.769A.769.769,0,0,1,9.846,28.615Zm0,3.077a.769.769,0,1,1-.769.769A.769.769,0,0,1,9.846,31.692Z" transform="translate(-6 -17.077)" fill="#9b2450"/>
      </g>
    </g>
  </g>
</svg>
