<svg xmlns="http://www.w3.org/2000/svg" width="20" height="19.903" viewBox="0 0 20 19.903">
  <g id="checkin_icon" transform="translate(-1354.993 -17219.743)">
    <path id="Path_133" data-name="Path 133" d="M4565.573,4560.94a4.733,4.733,0,1,0,4.732,4.733A4.733,4.733,0,0,0,4565.573,4560.94Zm2.084,4.09-2.13,2.13a.592.592,0,0,1-.838,0l-1.2-1.2a.593.593,0,0,1,.838-.838l.782.782,1.711-1.712a.592.592,0,0,1,.838.838Zm0,0" transform="translate(-3200.838 12664.021)" fill="#9b2450"/>
    <path id="Path_134" data-name="Path 134" d="M18.557,10.186H17.7A8.545,8.545,0,0,0,9.766,2.255V1.4a.593.593,0,0,0-1.184,0v.86A8.545,8.545,0,0,0,.651,10.186H-.21a.593.593,0,0,0-.533.289.593.593,0,0,0,0,.607.593.593,0,0,0,.533.289H.65A8.545,8.545,0,0,0,8.581,19.3v.86a.593.593,0,0,0,1.184,0V19.3A8.545,8.545,0,0,0,17.7,11.37h.86a.593.593,0,1,0,0-1.184ZM9.765,18.114V17.3a.593.593,0,1,0-1.184,0v.816a7.371,7.371,0,0,1-6.743-6.743h.816a.593.593,0,1,0,0-1.184H1.838A7.371,7.371,0,0,1,8.581,3.443v.816a.593.593,0,1,0,1.184,0V3.443a7.371,7.371,0,0,1,6.743,6.743h-.816a.593.593,0,1,0,0,1.184h.816a7.371,7.371,0,0,1-6.742,6.744Zm0,0" transform="translate(1355.82 17218.916)" fill="#9b2450"/>
  </g>
</svg>
