<svg xmlns="http://www.w3.org/2000/svg" width="20" height="20.784" viewBox="0 0 20 20.784">
  <g id="cogs" transform="translate(-6.858)">
    <g id="Group_8" data-name="Group 8" transform="translate(6.858)">
      <path id="Path_13" data-name="Path 13" d="M19.966,137.478a.711.711,0,0,0-.072-.543l-1.49-2.581a.715.715,0,0,0-.978-.262l-.777.449a5.466,5.466,0,0,0-1.019-.59v-.895a.717.717,0,0,0-.716-.716H11.934a.717.717,0,0,0-.716.716v.895a5.467,5.467,0,0,0-1.019.59l-.777-.449a.715.715,0,0,0-.978.262l-1.49,2.581a.716.716,0,0,0,.262.978l.775.447a5.458,5.458,0,0,0,0,1.179l-.775.447a.716.716,0,0,0-.262.978l1.49,2.581a.715.715,0,0,0,.978.262l.777-.449a5.47,5.47,0,0,0,1.019.59v.895a.716.716,0,0,0,.716.716h2.981a.717.717,0,0,0,.716-.716v-.895a5.465,5.465,0,0,0,1.019-.59l.777.449a.715.715,0,0,0,.978-.262l1.49-2.581a.716.716,0,0,0-.262-.978l-.775-.447a5.467,5.467,0,0,0,0-1.179l.775-.447A.709.709,0,0,0,19.966,137.478Zm-6.542,4.58a3.108,3.108,0,1,1,3.108-3.108A3.108,3.108,0,0,1,13.424,142.058Z" transform="translate(-6.858 -124.777)" fill="#9b2450"/>
      <path id="Path_14" data-name="Path 14" d="M167.243,5.348a.471.471,0,0,0,.047.359l.986,1.708a.474.474,0,0,0,.647.173l.514-.3a3.613,3.613,0,0,0,.674.39v.593a.474.474,0,0,0,.474.474h1.972a.474.474,0,0,0,.474-.474V7.682a3.618,3.618,0,0,0,.674-.39l.515.3a.474.474,0,0,0,.647-.173l.986-1.708a.474.474,0,0,0-.173-.647l-.513-.3a3.578,3.578,0,0,0,0-.78l.513-.3a.474.474,0,0,0,.173-.647l-.986-1.708a.473.473,0,0,0-.647-.173l-.515.3a3.613,3.613,0,0,0-.674-.39V.474A.474.474,0,0,0,172.558,0h-1.972a.474.474,0,0,0-.474.474v.593a3.619,3.619,0,0,0-.674.39l-.514-.3a.473.473,0,0,0-.647.173l-.986,1.708a.474.474,0,0,0,.173.647l.513.3a3.578,3.578,0,0,0,0,.78l-.513.3A.471.471,0,0,0,167.243,5.348Zm4.329-3.031a2.057,2.057,0,1,1-2.057,2.057A2.057,2.057,0,0,1,171.572,2.318Z" transform="translate(-158.063)" fill="#9b2450"/>
      <path id="Path_15" data-name="Path 15" d="M257.99,152l-.353-.2a2.453,2.453,0,0,0,0-.537l.353-.2a.326.326,0,0,0,.119-.445l-.679-1.176a.326.326,0,0,0-.445-.119l-.354.2a2.488,2.488,0,0,0-.464-.269v-.408a.326.326,0,0,0-.326-.326h-1.358a.326.326,0,0,0-.326.326v.408a2.487,2.487,0,0,0-.464.269l-.354-.2a.326.326,0,0,0-.445.119l-.679,1.176a.326.326,0,0,0,.119.445l.353.2a2.45,2.45,0,0,0,0,.537l-.353.2a.326.326,0,0,0-.119.445l.679,1.176a.326.326,0,0,0,.445.119l.354-.2a2.49,2.49,0,0,0,.464.269v.408a.326.326,0,0,0,.326.326h1.358a.326.326,0,0,0,.326-.326V153.8a2.486,2.486,0,0,0,.464-.269l.354.2a.326.326,0,0,0,.445-.119l.679-1.176a.326.326,0,0,0-.119-.445Zm-2.828.944a1.416,1.416,0,1,1,1.416-1.416A1.416,1.416,0,0,1,255.162,152.94Z" transform="translate(-238.153 -140.027)" fill="#9b2450"/>
    </g>
  </g>
</svg>
