<svg xmlns="http://www.w3.org/2000/svg" width="20" height="20.412" viewBox="0 0 20 20.412">
  <g id="discount" transform="translate(-4.919 0)">
    <g id="Group_7" data-name="Group 7" transform="translate(4.919 0)">
      <g id="Group_6" data-name="Group 6" transform="translate(0 0)">
        <circle id="Ellipse_1" data-name="Ellipse 1" cx="0.853" cy="0.853" r="0.853" transform="translate(6.434 7.619)" fill="#9b2450"/>
        <circle id="Ellipse_2" data-name="Ellipse 2" cx="0.853" cy="0.853" r="0.853" transform="translate(11.855 11.082)" fill="#9b2450"/>
        <path id="Path_12" data-name="Path 12" d="M24.663,11.333l-.31-.422a1.332,1.332,0,0,1-.013-1.552l.3-.427a1.331,1.331,0,0,0-.46-1.941l-.46-.247a1.326,1.326,0,0,1-.682-1.393l.088-.514A1.329,1.329,0,0,0,21.873,3.29l-.523-.021a1.333,1.333,0,0,1-1.221-.958l-.146-.5A1.326,1.326,0,0,0,18.18.96l-.481.2A1.325,1.325,0,0,1,16.185.83L15.838.441a1.326,1.326,0,0,0-1.991.017L13.5.851a1.33,1.33,0,0,1-1.51.356l-.485-.2a1.332,1.332,0,0,0-1.79.878l-.138.506a1.321,1.321,0,0,1-1.2.975l-.523.029a1.328,1.328,0,0,0-1.23,1.568l.1.514a1.326,1.326,0,0,1-.661,1.4L5.6,7.133a1.327,1.327,0,0,0-.427,1.945l.31.422A1.332,1.332,0,0,1,5.5,11.052l-.3.427a1.331,1.331,0,0,0,.46,1.941l.46.247A1.326,1.326,0,0,1,6.8,15.059l-.088.514a1.329,1.329,0,0,0,1.255,1.548l.523.021A1.333,1.333,0,0,1,9.71,18.1l.146.5a1.326,1.326,0,0,0,1.8.849l.481-.2a1.325,1.325,0,0,1,1.514.335l.347.389a1.326,1.326,0,0,0,1.991-.017l.343-.393a1.33,1.33,0,0,1,1.51-.356l.485.2a1.332,1.332,0,0,0,1.79-.878l.138-.506a1.321,1.321,0,0,1,1.2-.975l.523-.029a1.328,1.328,0,0,0,1.23-1.568l-.1-.514a1.326,1.326,0,0,1,.661-1.4l.456-.255A1.326,1.326,0,0,0,24.663,11.333ZM10.145,8.472A2.058,2.058,0,1,1,12.2,10.53,2.056,2.056,0,0,1,10.145,8.472ZM12.6,13.779a.5.5,0,0,1-.707.067h0a.5.5,0,0,1-.067-.707l5.4-6.5a.5.5,0,0,1,.774.64Zm5.027.213a2.058,2.058,0,1,1,2.058-2.058A2.056,2.056,0,0,1,17.628,13.993Z" transform="translate(-4.919 0)" fill="#9b2450"/>
      </g>
    </g>
  </g>
</svg>
